<svg xmlns="http://www.w3.org/2000/svg" viewBox="0 0 24 24" width="24" height="24">
	<style>
		tspan { white-space:pre }
		.shp0 { fill: #0f4387 } 
		.shp1 { fill: #ffffff } 
	</style>
	<path id="Layer" class="shp0" d="M3.75 18.38L3.75 5.63C3.75 3.04 5.85 0.94 8.44 0.94L5.63 0.94C3.04 0.94 0.94 3.04 0.94 5.63L0.94 18.38C0.94 20.96 3.04 23.06 5.63 23.06L8.07 23.05C5.65 22.86 3.75 20.84 3.75 18.38Z" />
	<path id="Layer" fill-rule="evenodd" class="shp1" d="M17.06 20.44C16.82 20.44 16.58 20.35 16.4 20.16C16.03 19.8 16.03 19.2 16.4 18.84L18.1 17.14C18.28 16.97 18.38 16.73 18.38 16.48C18.38 16.24 18.28 16 18.1 15.83L16.41 14.17C16.04 13.81 16.03 13.22 16.39 12.84C16.75 12.47 17.35 12.47 17.72 12.83L19.42 14.49C19.42 14.49 19.42 14.5 19.43 14.5C19.96 15.03 20.25 15.73 20.25 16.48C20.25 17.23 19.96 17.94 19.43 18.47L17.72 20.16C17.54 20.35 17.3 20.44 17.06 20.44ZM15.61 17.34L12.66 17.34C12.14 17.34 11.72 16.92 11.72 16.41C11.72 15.89 12.14 15.47 12.66 15.47L15.61 15.47C16.13 15.47 16.55 15.89 16.55 16.41C16.55 16.92 16.13 17.34 15.61 17.34Z" />
	<path id="Layer" fill-rule="evenodd" class="shp0" d="M18.38 24L5.63 24C2.52 24 0 21.48 0 18.38L0 5.63C0 2.52 2.52 0 5.63 0L18.38 0C21.48 0 24 2.52 24 5.63L24 18.38C24 21.48 21.48 24 18.38 24ZM5.63 1.88C3.56 1.88 1.88 3.56 1.88 5.63L1.88 18.38C1.88 20.44 3.56 22.13 5.63 22.13L18.38 22.13C20.44 22.13 22.13 20.44 22.13 18.38L22.13 5.63C22.13 3.56 20.44 1.88 18.38 1.88L5.63 1.88ZM19.31 6.98L4.69 6.98C4.17 6.98 3.75 6.56 3.75 6.05C3.75 5.53 4.17 5.11 4.69 5.11L19.31 5.11C19.83 5.11 20.25 5.53 20.25 6.05C20.25 6.56 19.83 6.98 19.31 6.98ZM6.94 16.69C6.7 16.69 6.46 16.6 6.28 16.41L4.57 14.72C4.04 14.19 3.75 13.48 3.75 12.73C3.75 11.98 4.04 11.28 4.57 10.75C4.58 10.75 4.58 10.74 4.58 10.74L6.28 9.08C6.65 8.72 7.25 8.72 7.61 9.09C7.97 9.47 7.96 10.06 7.59 10.42L5.9 12.08C5.72 12.25 5.63 12.49 5.63 12.73C5.63 12.98 5.72 13.22 5.9 13.39L7.6 15.09C7.97 15.45 7.97 16.05 7.6 16.41C7.42 16.6 7.18 16.69 6.94 16.69ZM11.34 13.59L8.39 13.59C7.87 13.59 7.45 13.17 7.45 12.66C7.45 12.14 7.87 11.72 8.39 11.72L11.34 11.72C11.86 11.72 12.28 12.14 12.28 12.66C12.28 13.17 11.86 13.59 11.34 13.59Z" />
</svg>