<svg width="111" height="72" viewBox="0 0 111 72" fill="none" xmlns="http://www.w3.org/2000/svg">
<path d="M76.7799 43.7966C78.1024 43.7966 79.3463 43.282 80.2824 42.3468L85.1116 37.5177L89.8751 42.2809C91.7353 44.1402 94.789 44.3172 96.774 42.51C98.8531 40.6182 98.96 37.3553 96.9459 35.3421L92.1166 30.5131L96.88 25.7498C97.8298 24.8001 98.3752 23.4862 98.3752 22.1458C98.3752 17.7775 93.045 15.5754 89.9409 18.6794L85.1116 23.5084L80.3482 18.7461C77.1979 15.5942 71.8267 17.7459 71.8267 22.1817C71.8267 23.505 72.3422 24.7488 73.2774 25.684L78.1067 30.5131L73.3441 35.2763C70.2092 38.4093 72.3131 43.7966 76.7799 43.7966ZM75.6788 37.6109L81.2287 32.0612C82.0845 31.2055 82.0845 29.8215 81.2287 28.9649L75.613 23.3494C74.9556 22.6929 74.9598 21.6064 75.672 20.9584C76.3388 20.3515 77.386 20.4523 78.0135 21.0807L83.5651 26.6321C84.4183 27.4835 85.7998 27.4886 86.6598 26.6303C92.3089 21.1986 92.25 20.531 93.4442 20.531C94.948 20.531 95.6216 22.339 94.5445 23.4161L88.9945 28.9658C88.9774 28.9914 88.3534 29.5403 88.3534 30.5131C88.3534 31.0978 88.5816 31.6475 88.9945 32.0612C94.4274 37.7101 95.0942 37.6502 95.0942 38.8444C95.0942 40.3575 93.2835 41.02 92.2098 39.9455L86.6581 34.3949C85.7998 33.5375 84.414 33.5435 83.5634 34.3958L77.9477 40.0113C77.6356 40.3233 77.221 40.4951 76.7799 40.4951C75.2573 40.4951 74.6102 38.6786 75.6788 37.6109Z" fill="#FB6C05"/>
<path fill-rule="evenodd" clip-rule="evenodd" d="M56.5214 2.20238C56.5214 3.41934 55.536 4.40477 54.319 4.40477H46.9397V10.8032C53.8283 11.1353 60.2763 13.1767 65.8675 16.5114C64.9916 17.7132 64.2256 19.0002 63.5842 20.3576C54.0358 14.7156 41.9753 13.2773 30.7589 17.8403C29.6309 18.2988 28.3466 17.7571 27.8881 16.6302C27.4296 15.5034 27.9714 14.218 29.0983 13.7595C33.3878 12.0156 37.8987 11.0233 42.5338 10.8021V4.40477H35.1534C33.9364 4.40477 32.951 3.41934 32.951 2.20238C32.951 0.985427 33.9364 0 35.1534 0H54.319C55.536 0 56.5214 0.985427 56.5214 2.20238ZM81.5083 54.0372V57.7843H7.9652V51.7235C7.9652 39.8482 13.7683 28.6675 23.4879 21.8162C24.4825 21.1148 24.7209 19.7405 24.0194 18.7459C23.318 17.7525 21.9448 17.5141 20.9502 18.2156C10.0604 25.8914 3.55929 38.4168 3.55929 51.7235V58.7036C-2.66578 62.2472 -0.229583 72 7.02767 72H82.4447C86.3214 72 89.4727 68.8453 89.4727 64.9709V64.8157C89.4727 62.1993 88.0391 59.9148 85.9143 58.7047V54.2949C85.6477 54.3037 85.38 54.3082 85.1113 54.3082C83.8865 54.3082 82.6833 54.2157 81.5083 54.0372ZM85.0668 64.972V64.8169C85.0668 63.3764 83.9058 62.2062 82.4698 62.1914H7.00258C5.57006 62.2062 4.40557 63.3764 4.40557 64.8169V64.972C4.40557 66.4171 5.58375 67.5952 7.02767 67.5952H82.4447C83.8921 67.5952 85.0668 66.4171 85.0668 64.972Z" fill="#003680"/>
<path d="M110.907 30.5118C110.907 29.4072 110.012 28.5118 108.907 28.5118C107.803 28.5118 106.907 29.4072 106.907 30.5118H110.907ZM104.865 21.2862C105.333 22.2866 106.524 22.7182 107.524 22.2501C108.524 21.7819 108.956 20.5914 108.488 19.5909L104.865 21.2862ZM106.907 30.5118C106.907 42.5495 97.1489 52.308 85.1112 52.308V56.308C99.358 56.308 110.907 44.7587 110.907 30.5118H106.907ZM85.1112 52.308C73.0734 52.308 63.3149 42.5495 63.3149 30.5118H59.3149C59.3149 44.7587 70.8643 56.308 85.1112 56.308V52.308ZM63.3149 30.5118C63.3149 18.4741 73.0734 8.71558 85.1112 8.71558V4.71558C70.8643 4.71558 59.3149 16.2649 59.3149 30.5118H63.3149ZM85.1112 8.71558C93.848 8.71558 101.388 13.856 104.865 21.2862L108.488 19.5909C104.378 10.8072 95.458 4.71558 85.1112 4.71558V8.71558Z" fill="#003680"/>
</svg>
