<svg width="30" height="30" viewBox="0 0 30 30" fill="none" xmlns="http://www.w3.org/2000/svg">
<path d="M15 30C6.7289 30 0 23.2711 0 15C0 6.7289 6.7289 0 15 0C23.2711 0 30 6.7289 30 15C30 23.2711 23.2711 30 15 30ZM15 2.14279C7.91061 2.14279 2.14279 7.91061 2.14279 15C2.14279 22.0894 7.91061 27.8572 15 27.8572C22.0894 27.8572 27.8572 22.0894 27.8572 15C27.8572 7.91061 22.0894 2.14279 15 2.14279Z" fill="#F67772"/>
<path d="M20.357 21.4286C20.0828 21.4286 19.8086 21.324 19.5994 21.1146L8.88526 10.4004C8.46663 9.98176 8.46663 9.30381 8.88526 8.88542C9.30365 8.46702 9.98183 8.46679 10.4002 8.88542L21.1144 19.5996C21.533 20.0182 21.533 20.6962 21.1144 21.1146C20.9052 21.324 20.6312 21.4286 20.357 21.4286Z" fill="#F67772"/>
<path d="M9.64263 21.4287C9.36843 21.4287 9.09446 21.3241 8.88526 21.1147C8.46663 20.6963 8.46663 20.0181 8.88526 19.5997L19.5994 8.8855C20.0181 8.46688 20.696 8.46688 21.1144 8.8855C21.5328 9.3039 21.533 9.98207 21.1144 10.4005L10.4002 21.1147C10.191 21.3241 9.91683 21.4287 9.64263 21.4287Z" fill="#F67772"/>
</svg>
