<svg width="30" height="30" viewBox="0 0 30 30" fill="none" xmlns="http://www.w3.org/2000/svg">
<path d="M26.0136 0.257492C25.6705 -0.0858308 25.1139 -0.0858308 24.7708 0.257492L17.997 7.03126H2.63672C1.18286 7.03126 0 8.21412 0 9.66798V21.9724C0 23.4265 1.18286 24.6092 2.63672 24.6092H3.57422V29.1209C3.57422 29.4782 3.79052 29.8 4.12125 29.9348C4.45679 30.0717 4.83514 29.9872 5.08141 29.7357L10.0962 24.6092H20.3321C21.7859 24.6092 22.9688 23.4265 22.9688 21.9724V12.003L29.7426 5.22927C30.0857 4.88594 30.0857 4.32953 29.7426 3.98621L26.0136 0.257492ZM17.9343 14.5514L15.4484 12.0655L22.9063 4.60785L25.3922 7.09374L17.9343 14.5514ZM14.512 13.615L16.3848 15.4878L13.1749 16.8249L14.512 13.615ZM21.211 21.9724C21.211 22.4572 20.8166 22.8514 20.3321 22.8514H9.72658C9.49014 22.8514 9.26355 22.9468 9.0983 23.1157L5.33204 26.9657V23.7303C5.33204 23.245 4.93859 22.8514 4.45313 22.8514H2.63672C2.15218 22.8514 1.75782 22.4572 1.75782 21.9724V9.66798C1.75782 9.1832 2.15218 8.78907 2.63672 8.78907H16.239L13.5839 11.4441C13.5107 11.5173 13.4381 11.6183 13.3898 11.7378L10.9571 17.5781H6.21095C5.72549 17.5781 5.33204 17.9716 5.33204 18.457C5.33204 18.9423 5.72549 19.3353 6.21095 19.3353H11.5425H11.5432C11.6563 19.3353 11.7776 19.3121 11.8886 19.2645L18.2621 16.61C18.3683 16.5685 18.4754 16.4964 18.5559 16.4159L21.211 13.7608V21.9724ZM26.635 5.85068L24.1491 3.36479L25.3922 2.12197L27.8781 4.60785L26.635 5.85068Z" fill="#003680"/>
</svg>
