<svg width="30" height="30" viewBox="0 0 30 30" fill="none" xmlns="http://www.w3.org/2000/svg">
<path d="M14.7013 15.9313C14.8004 15.935 14.8998 15.9375 15 15.9375C15.093 15.9375 15.1854 15.9354 15.2777 15.932C17.3761 15.9773 19.4399 16.5326 21.2634 17.5475C21.8289 17.8622 22.5426 17.6589 22.8573 17.0934C23.172 16.5278 22.9688 15.8141 22.4032 15.4994C21.5637 15.0323 20.6813 14.6473 19.7704 14.3479C21.7108 12.8931 22.9688 10.575 22.9688 7.96875C22.9688 3.57468 19.3939 0 15 0C10.606 0 7.03128 3.57468 7.03128 7.96875C7.03128 10.5766 8.29059 12.8961 10.2331 14.3507C8.45355 14.9364 6.78363 15.8475 5.32199 17.0496C2.64247 19.2538 0.779371 22.3281 0.0760173 25.7064C-0.144396 26.765 0.119734 27.8522 0.800428 28.6894C1.47769 29.5223 2.48225 30 3.55617 30H12.7149C13.3619 30 13.8867 29.4754 13.8867 28.8281C13.8867 28.1808 13.3619 27.6562 12.7149 27.6562H3.55617C3.05583 27.6562 2.75416 27.377 2.61867 27.2106C2.38498 26.9231 2.29457 26.5491 2.37056 26.1841C3.58752 20.3387 8.74606 16.0698 14.7013 15.9313ZM9.37503 7.96875C9.37503 4.86717 11.8982 2.34375 15 2.34375C18.1016 2.34375 20.625 4.86717 20.625 7.96875C20.625 10.9769 18.2515 13.4409 15.279 13.5869C15.1859 13.5851 15.093 13.5839 15 13.5839C14.9085 13.5839 14.8172 13.5853 14.7258 13.5869C11.7511 13.4436 9.37503 10.9785 9.37503 7.96875ZM30 21.7868C30.0012 22.5696 29.6952 23.3052 29.1387 23.8586L26.9591 26.0262C26.7305 26.2537 26.4315 26.3672 26.1328 26.3672C25.8319 26.3672 25.5309 26.2518 25.3018 26.0216C24.8454 25.5627 24.8474 24.8209 25.3063 24.3645L26.7673 22.9115H20.1263C18.818 22.9115 17.7539 23.9758 17.7539 25.2839C17.7539 26.5919 18.8052 27.6562 20.0977 27.6562C20.7447 27.6562 21.2696 28.1808 21.2696 28.8281C21.2696 29.4754 20.7447 30 20.0977 30C18.8372 30 17.6562 29.5079 16.7725 28.6141C15.8938 27.7256 15.4102 26.543 15.4102 25.2839C15.4102 22.6833 17.5257 20.5678 20.1263 20.5678H26.6597L25.3086 19.2318C24.8486 18.7766 24.8442 18.0345 25.2995 17.5745C25.7545 17.1144 26.4965 17.1101 26.9568 17.5653L29.133 19.7173C29.691 20.2691 29.9989 21.004 30 21.7868Z" fill="#003680"/>
</svg>
