<svg width="20" height="20" viewBox="0 0 20 20" fill="none" xmlns="http://www.w3.org/2000/svg">
<path d="M5.57625 17.0754C6.7657 17.4114 8.33676 17.5965 10 17.5965C11.6632 17.5965 13.2343 17.4114 14.4237 17.0754C15.8789 16.6643 16.6168 16.0693 16.6168 15.3068C16.6168 14.5444 15.8789 13.9494 14.4237 13.5383C13.7588 13.3505 12.9742 13.2101 12.1212 13.1225C13.7916 10.2715 15.4469 7.04336 15.4469 5.44684C15.4469 2.44344 13.0034 0 10 0C6.99656 0 4.55312 2.44344 4.55312 5.44684C4.55312 7.04332 6.20836 10.2714 7.87871 13.1224C7.02574 13.21 6.24129 13.3504 5.57629 13.5383C4.12109 13.9494 3.38324 14.5444 3.38324 15.3068C3.3832 16.0693 4.12105 16.6643 5.57625 17.0754ZM10 1.17187C12.3573 1.17187 14.275 3.08961 14.275 5.44684C14.275 6.65762 12.7769 9.83152 10.2676 13.9371C10.1847 14.0727 10.0528 14.0873 9.99996 14.0873C9.94715 14.0873 9.81523 14.0727 9.73234 13.9371C7.22304 9.83152 5.72492 6.65766 5.72492 5.44684C5.725 3.08961 7.64273 1.17187 10 1.17187ZM6.10761 14.6089C6.80625 14.431 7.64332 14.3061 8.54562 14.2411C8.60824 14.3444 8.67054 14.4468 8.73246 14.5481C9.00457 14.9934 9.4784 15.2591 9.99996 15.2591C10.5216 15.2591 10.9953 14.9933 11.2675 14.5481C11.3294 14.4468 11.3917 14.3444 11.4543 14.2411C12.3566 14.3061 13.1937 14.431 13.8923 14.6089C14.9633 14.8817 15.3545 15.1887 15.435 15.3068C15.3545 15.4249 14.9633 15.732 13.8924 16.0047C12.8294 16.2755 11.447 16.4246 9.99996 16.4246C8.55293 16.4246 7.17054 16.2755 6.10758 16.0047C5.03664 15.732 4.64543 15.4248 4.565 15.3068C4.64547 15.1887 5.03668 14.8817 6.10761 14.6089Z" fill="#003680"/>
<path d="M18.2941 14.0224C18.0104 13.8665 17.6542 13.9702 17.4984 14.2538C17.3426 14.5374 17.4462 14.8937 17.7298 15.0494C18.4278 15.4329 18.8281 15.858 18.8281 16.2157C18.8281 16.6532 18.2082 17.3314 16.4682 17.9225C14.7493 18.5066 12.4521 18.8282 10 18.8282C7.54785 18.8282 5.2507 18.5066 3.53176 17.9225C1.7918 17.3314 1.17188 16.6532 1.17188 16.2157C1.17188 15.858 1.57219 15.4329 2.27016 15.0494C2.55379 14.8936 2.65738 14.5374 2.50156 14.2537C2.34574 13.9701 1.98961 13.8665 1.7059 14.0223C0.927695 14.4499 0 15.1774 0 16.2157C0 17.0116 0.547344 18.1462 3.15477 19.0321C4.99195 19.6563 7.42297 20 10 20C12.577 20 15.008 19.6563 16.8452 19.0321C19.4527 18.1462 20 17.0116 20 16.2157C20 15.1774 19.0723 14.4499 18.2941 14.0224Z" fill="#003680"/>
<path d="M12.1893 5.0728C12.1893 3.86565 11.2072 2.88354 10 2.88354C8.79282 2.88354 7.81067 3.86565 7.81067 5.0728C7.81067 6.27999 8.79282 7.2621 10 7.2621C11.2072 7.2621 12.1893 6.28003 12.1893 5.0728ZM8.98254 5.0728C8.98254 4.51183 9.43899 4.05542 10 4.05542C10.561 4.05542 11.0175 4.51183 11.0175 5.0728C11.0175 5.63378 10.561 6.09022 10 6.09022C9.43899 6.09022 8.98254 5.63382 8.98254 5.0728Z" fill="#003680"/>
</svg>
