<svg width="30" height="29" viewBox="0 0 30 29" fill="none" xmlns="http://www.w3.org/2000/svg">
<path d="M29.0218 15.3261H10.1086C9.56863 15.3261 9.13037 14.8879 9.13037 14.3479C9.13037 13.8079 9.56863 13.3696 10.1086 13.3696H29.0218C29.5618 13.3696 30 13.8079 30 14.3479C30 14.8879 29.5618 15.3261 29.0218 15.3261Z" fill="#003680"/>
<path d="M15.3262 20.5434C15.0756 20.5434 14.8253 20.4484 14.6348 20.2566L9.41746 15.0393C9.03533 14.6569 9.03533 14.0374 9.41746 13.6553L14.6348 8.43797C15.0169 8.05583 15.6364 8.05583 16.0188 8.43797C16.4009 8.8201 16.4009 9.43963 16.0188 9.82176L11.4927 14.3479L16.0188 18.874C16.4009 19.2561 16.4009 19.8757 16.0188 20.2578C15.827 20.4484 15.5765 20.5434 15.3262 20.5434Z" fill="#003680"/>
<path d="M14.3479 28.6957C6.43702 28.6957 0 22.2587 0 14.3479C0 6.43702 6.43702 0 14.3479 0C20.2838 0 25.5248 3.57126 27.7017 9.09928C27.8999 9.60131 27.652 10.1688 27.15 10.3682C26.6477 10.564 26.0803 10.32 25.8809 9.8153C24.0012 5.04128 19.4739 1.95652 14.3479 1.95652C7.51558 1.95652 1.95652 7.51582 1.95652 14.3479C1.95652 21.1799 7.51558 26.7392 14.3479 26.7392C19.4739 26.7392 24.0012 23.6545 25.8809 18.8819C26.0791 18.377 26.6466 18.1331 27.15 18.3287C27.652 18.527 27.8999 19.0956 27.7017 19.5979C25.5248 25.1245 20.2838 28.6957 14.3479 28.6957Z" fill="#003680"/>
</svg>
