<svg width="26" height="29" viewBox="0 0 26 29" fill="none" xmlns="http://www.w3.org/2000/svg">
<path fill-rule="evenodd" clip-rule="evenodd" d="M19.5007 4.03752V13.568H24.2797V4.03752C24.2797 2.72524 23.2027 1.648 21.8902 1.648C20.5776 1.648 19.5007 2.72502 19.5007 4.03752ZM7.74736 8.19718C7.42573 7.87555 7.42573 7.35387 7.74736 7.03224C8.06921 6.71028 8.59089 6.71028 8.91285 7.03224L9.36433 7.48382L10.8232 6.0252C9.8081 5.23999 8.36708 5.33363 7.46039 6.2401C6.46435 7.23625 6.46435 8.85123 7.46039 9.84749C8.45632 10.8435 10.0715 10.8435 11.0675 9.84749C11.6886 9.22656 11.9566 8.31723 11.7417 7.43662L9.94707 9.23162C9.62511 9.55315 9.10343 9.55315 8.7818 9.23162L7.74736 8.19718ZM11.9941 4.8542L13.0286 3.81954C13.3502 3.49791 13.872 3.49791 14.1938 3.81954C14.5153 4.1414 14.5153 4.66307 14.1938 4.9847L13.0173 6.16098C13.8326 7.7829 13.5063 9.73911 12.2327 11.0124C10.5929 12.6524 7.93508 12.6524 6.29511 11.0124C4.65559 9.37291 4.65559 6.71479 6.29511 5.07504C7.84573 3.52443 10.3288 3.42749 11.9941 4.8542ZM4.11983 22.0825C3.66461 22.0825 3.29577 22.4515 3.29577 22.9066C3.29577 23.3616 3.66461 23.7305 4.11983 23.7305C4.57482 23.7305 4.94388 23.3616 4.94388 22.9066C4.94388 22.4515 4.57482 22.0825 4.11983 22.0825ZM7.41571 23.7305C6.96039 23.7305 6.59177 23.3616 6.59177 22.9066C6.59177 22.4515 6.96039 22.0825 7.41571 22.0825H15.3808C15.8358 22.0825 16.2048 22.4515 16.2048 22.9066C16.2048 23.3616 15.8358 23.7305 15.3808 23.7305H7.41571ZM4.11983 18.7868C3.66461 18.7868 3.29577 19.1555 3.29577 19.6107C3.29577 20.0657 3.66461 20.4346 4.11983 20.4346C4.57482 20.4346 4.94388 20.0657 4.94388 19.6107C4.94388 19.1555 4.57482 18.7868 4.11983 18.7868ZM7.41571 20.4346C6.96039 20.4346 6.59177 20.0657 6.59177 19.6107C6.59177 19.1555 6.96039 18.7868 7.41571 18.7868H15.3808C15.8358 18.7868 16.2048 19.1555 16.2048 19.6107C16.2048 20.0657 15.8358 20.4346 15.3808 20.4346H7.41571ZM19.5007 15.216V27.3011C19.5007 27.7562 19.1318 28.125 18.6767 28.125H0.823944C0.368618 28.125 0 27.7562 0 27.3011V3.95511C0 1.77575 1.77542 0 3.95511 0H21.8902C24.1125 0 25.9277 1.81536 25.9277 4.03752V14.3919C25.9277 14.847 25.5588 15.216 25.1037 15.216H19.5007ZM18.64 1.648C18.1458 2.31778 17.8528 3.14492 17.8528 4.03752V26.4771H1.64789V3.95511C1.64789 2.68552 2.6853 1.648 3.95511 1.648H18.64ZM4.11983 15.4908C3.66461 15.4908 3.29577 15.8597 3.29577 16.3147C3.29577 16.7698 3.66461 17.1388 4.11983 17.1388C4.57482 17.1388 4.94388 16.7698 4.94388 16.3147C4.94388 15.8597 4.57482 15.4908 4.11983 15.4908ZM7.41571 17.1388H15.3808C15.8358 17.1388 16.2048 16.7698 16.2048 16.3147C16.2048 15.8597 15.8358 15.4908 15.3808 15.4908H7.41571C6.96039 15.4908 6.59177 15.8597 6.59177 16.3147C6.59177 16.7698 6.96039 17.1388 7.41571 17.1388Z" fill="#003680"/>
</svg>
