<svg width="30" height="30" viewBox="0 0 30 30" fill="none" xmlns="http://www.w3.org/2000/svg">
<path d="M16.1979 17.9648C15.8295 17.7974 15.4297 17.7108 15.0251 17.7108H12.2893V15.8201C12.2861 13.211 10.1718 11.0966 7.56263 11.0935H6.6173V16.2597L4.44304 17.7108H0V19.6015H5.01024L8.50796 17.2712V13.1458C9.64017 13.5479 10.3971 14.6186 10.3986 15.8201V19.6015H15.0251C15.5472 19.6013 15.9705 20.0244 15.9706 20.5466C15.9707 20.6813 15.9419 20.8145 15.8862 20.9372L12.6258 28.1094H8.25744L4.47613 26.2188H0V28.1094H4.02994L7.81125 30.0001H13.8434L17.6067 21.7199C18.2546 20.294 17.6239 18.6128 16.1979 17.9648Z" fill="#003680"/>
<path d="M30.0001 14.8747L27.581 11.5368L28.0092 7.43501L24.2421 5.758L22.566 1.99086L18.4633 2.4191L15.1253 0L11.7874 2.4191L7.68559 1.99086L6.00952 5.758L2.24239 7.43501L2.66967 11.5368L0.652344 14.3198L2.18378 15.4297L4.62556 12.0605L4.26444 8.60343L7.44169 7.19111L8.85496 4.01481L12.3101 4.37498L15.1253 2.33496L17.9405 4.37498L21.3957 4.01481L22.8099 7.19111L25.9862 8.60343L25.6251 12.0605L27.6651 14.8747L25.6251 17.689L25.9862 21.1461L22.809 22.5584L21.3957 25.7347L18.2997 25.4123L18.1031 27.2926L22.5651 27.7586L24.2411 23.9915L28.0083 22.3145L27.581 18.2127L30.0001 14.8747Z" fill="#003680"/>
<path d="M19.9071 20.7348C19.7205 20.8871 19.5267 21.0303 19.3264 21.1641L20.3776 22.7352C24.7189 19.8349 25.887 13.9645 22.9867 9.62333C22.8196 9.37329 22.6408 9.1314 22.4507 8.89844L20.9864 10.0943C23.6267 13.3307 23.1434 18.0946 19.9071 20.7348Z" fill="#003680"/>
<path d="M18.3601 8.03542C18.8668 8.27701 19.3454 8.57343 19.7876 8.9193L20.9541 7.43135C20.4027 7.00011 19.8058 6.63048 19.174 6.3291L18.3601 8.03542Z" fill="#003680"/>
<path d="M13.4427 7.50129L13.0248 5.65601C11.1127 6.08849 9.38362 7.10821 8.07983 8.57234L9.48837 9.83341C10.5307 8.66233 11.9134 7.84686 13.4427 7.50129Z" fill="#003680"/>
<path d="M17.1879 5.64732C16.5049 5.49701 15.8075 5.42127 15.1082 5.42139L15.1252 7.31204C15.6816 7.31246 16.2363 7.37331 16.7795 7.49355L17.1879 5.64732Z" fill="#003680"/>
</svg>
