<svg width="29" height="30" viewBox="0 0 29 30" fill="none" xmlns="http://www.w3.org/2000/svg">
<path d="M9.74307 5.77954H4.49756C4.0121 5.77954 3.61865 6.17299 3.61865 6.65845C3.61865 7.14391 4.0121 7.53735 4.49756 7.53735H9.74307C10.2283 7.53735 10.622 7.14391 10.622 6.65845C10.622 6.17299 10.2283 5.77954 9.74307 5.77954Z" fill="#003680"/>
<path d="M9.74307 9.29541H4.49756C4.0121 9.29541 3.61865 9.68886 3.61865 10.1743C3.61865 10.6598 4.0121 11.0532 4.49756 11.0532H9.74307C10.2283 11.0532 10.622 10.6598 10.622 10.1743C10.622 9.68886 10.2283 9.29541 9.74307 9.29541Z" fill="#003680"/>
<path d="M9.74307 12.8113H4.49756C4.0121 12.8113 3.61865 13.2047 3.61865 13.6902C3.61865 14.1756 4.0121 14.5691 4.49756 14.5691H9.74307C10.2283 14.5691 10.622 14.1756 10.622 13.6902C10.622 13.2047 10.2283 12.8113 9.74307 12.8113Z" fill="#003680"/>
<path d="M9.74307 16.3271H4.49756C4.0121 16.3271 3.61865 16.7206 3.61865 17.2061C3.61865 17.6915 4.0121 18.085 4.49756 18.085H9.74307C10.2283 18.085 10.622 17.6915 10.622 17.2061C10.622 16.7206 10.2283 16.3271 9.74307 16.3271Z" fill="#003680"/>
<path d="M9.74307 19.9019H4.49756C4.0121 19.9019 3.61865 20.2955 3.61865 20.7808C3.61865 21.2662 4.0121 21.6597 4.49756 21.6597H9.74307C10.2283 21.6597 10.622 21.2662 10.622 20.7808C10.622 20.2955 10.2283 19.9019 9.74307 19.9019Z" fill="#003680"/>
<path d="M12.6948 7.53735H17.9403C18.4258 7.53735 18.8192 7.14391 18.8192 6.65845C18.8192 6.17299 18.4258 5.77954 17.9403 5.77954H12.6948C12.2096 5.77954 11.8159 6.17299 11.8159 6.65845C11.8159 7.14391 12.2096 7.53735 12.6948 7.53735Z" fill="#003680"/>
<path d="M12.6948 11.0532H17.9403C18.4258 11.0532 18.8192 10.6598 18.8192 10.1743C18.8192 9.68886 18.4258 9.29541 17.9403 9.29541H12.6948C12.2096 9.29541 11.8159 9.68886 11.8159 10.1743C11.8159 10.6598 12.2096 11.0532 12.6948 11.0532Z" fill="#003680"/>
<path d="M16.1001 13.6902C16.1001 13.2047 15.7067 12.8113 15.2212 12.8113H12.6948C12.2096 12.8113 11.8159 13.2047 11.8159 13.6902C11.8159 14.1756 12.2096 14.5691 12.6948 14.5691H15.2212C15.7067 14.5691 16.1001 14.1756 16.1001 13.6902Z" fill="#003680"/>
<path d="M24.4261 20.2727C24.0475 19.969 23.4945 20.0297 23.1906 20.4082L20.9269 23.2303L19.5255 22.215C19.1325 21.9301 18.5827 22.018 18.298 22.4109C18.0133 22.8042 18.1012 23.3537 18.4942 23.6384L20.5731 25.1447C20.7287 25.2573 20.9091 25.312 21.0883 25.312C21.3463 25.312 21.6012 25.1987 21.7743 24.9829L24.5618 21.5082C24.8655 21.1297 24.8049 20.5765 24.4261 20.2727Z" fill="#003680"/>
<path d="M26.6476 17.5747C25.5027 16.4097 24.0317 15.6754 22.4377 15.4591V3.53966C22.4377 1.58798 20.8498 0 18.8981 0H3.53989C1.58798 0 0 1.58798 0 3.53966V23.8994C0 25.8513 1.58798 27.4393 3.53966 27.4393H15.8922C17.2822 29.0721 19.2808 30 21.443 30C25.4679 30 28.7423 26.7233 28.7423 22.6957C28.7423 20.7676 27.9984 18.9489 26.6476 17.5747ZM1.75781 23.8994V3.53966C1.75781 2.5573 2.5573 1.75781 3.53989 1.75781H18.8981C19.8807 1.75781 20.6799 2.5573 20.6799 3.53966V15.4312C17.0123 15.8141 14.1438 18.9258 14.1438 22.6957C14.1438 23.7405 14.3616 24.7508 14.7796 25.6812H3.53989C2.5573 25.6812 1.75781 24.882 1.75781 23.8994ZM21.443 28.2422C19.6877 28.2422 18.0741 27.4363 17.0155 26.0314C16.2868 25.0639 15.9013 23.9106 15.9013 22.6957C15.9013 19.6374 18.3875 17.1492 21.443 17.1492C21.4719 17.1492 21.5009 17.1497 21.5298 17.1501L21.5433 17.1503C23.0019 17.1762 24.3695 17.7644 25.394 18.8068C26.4196 19.8502 26.9845 21.2315 26.9845 22.6957C26.9845 25.754 24.4986 28.2422 21.443 28.2422Z" fill="#003680"/>
</svg>
